<?xml version="1.0" encoding="UTF-8" standalone="no"?>
<svg
   xmlns:dc="http://purl.org/dc/elements/1.1/"
   xmlns:cc="http://creativecommons.org/ns#"
   xmlns:rdf="http://www.w3.org/1999/02/22-rdf-syntax-ns#"
   xmlns:svg="http://www.w3.org/2000/svg"
   xmlns="http://www.w3.org/2000/svg"
   xmlns:sodipodi="http://sodipodi.sourceforge.net/DTD/sodipodi-0.dtd"
   xmlns:inkscape="http://www.inkscape.org/namespaces/inkscape"
   width="1024"
   height="1024"
   viewBox="0 0 270.93333 270.93334"
   version="1.1"
   id="svg8"
   inkscape:version="1.0.1 (3bc2e813f5, 2020-09-07)"
   sodipodi:docname="icon.svg"
   inkscape:export-filename="/home/npernoud/dev/taninita/assets/icon/icon.png"
   inkscape:export-xdpi="48.000004"
   inkscape:export-ydpi="48.000004">
  <defs
     id="defs2" />
  <sodipodi:namedview
     id="base"
     pagecolor="#ffffff"
     bordercolor="#666666"
     borderopacity="1.0"
     inkscape:pageopacity="0.0"
     inkscape:pageshadow="2"
     inkscape:zoom="0.24748737"
     inkscape:cx="-670.16007"
     inkscape:cy="326.35721"
     inkscape:document-units="mm"
     inkscape:current-layer="layer1"
     inkscape:document-rotation="0"
     showgrid="false"
     units="px"
     inkscape:window-width="2095"
     inkscape:window-height="1126"
     inkscape:window-x="577"
     inkscape:window-y="146"
     inkscape:window-maximized="0" />
  <metadata
     id="metadata5">
    <rdf:RDF>
      <cc:Work
         rdf:about="">
        <dc:format>image/svg+xml</dc:format>
        <dc:type
           rdf:resource="http://purl.org/dc/dcmitype/StillImage" />
        <dc:title></dc:title>
      </cc:Work>
    </rdf:RDF>
  </metadata>
  <g
     inkscape:label="Calque 1"
     inkscape:groupmode="layer"
     id="layer1">
    <circle
       style="fill:#ff8080;stroke-width:0.20192"
       id="path78"
       cx="135.46666"
       cy="135.46666"
       r="121.93318" />
    <path
       style="fill:#000000;stroke-width:0.211786"
       d="m 150.29161,236.90431 c -2.08115,-0.26479 -3.1293,-0.61577 -3.8503,-1.28928 -0.60052,-0.56098 -0.64255,-0.68894 -0.51999,-1.58315 0.0733,-0.53507 0.38579,-1.53536 0.69432,-2.22286 0.30854,-0.68751 0.50861,-1.30239 0.4446,-1.3664 -0.064,-0.064 -0.41507,0.31776 -0.78014,0.84837 -0.36507,0.53061 -0.84451,1.06148 -1.06541,1.17971 -0.5754,0.30793 -1.42657,0.26505 -1.74482,-0.0879 -0.23177,-0.25704 -0.43518,-0.1289 -1.3447,0.84715 -0.92325,0.99079 -1.17982,1.15001 -1.85313,1.15001 -0.42983,0 -0.78151,-0.0953 -0.78151,-0.21179 0,-0.41293 -0.44491,-0.20084 -1.37269,0.65436 -1.08075,0.9962 -2.35813,1.33063 -2.84441,0.7447 -0.25344,-0.30538 -0.35316,-0.27622 -1.00108,0.29266 -0.94669,0.83119 -1.56803,0.9658 -2.47393,0.53592 -0.70405,-0.3341 -0.77976,-0.32995 -1.59791,0.0874 -1.02773,0.5243 -1.67551,0.55364 -2.31619,0.1049 -0.43415,-0.3041 -0.55731,-0.30212 -1.4076,0.0226 -0.89634,0.34231 -0.96268,0.33939 -1.74215,-0.0767 -0.70814,-0.37799 -1.31774,-0.44628 -4.83426,-0.54159 -3.18774,-0.0864 -4.50864,-0.21627 -6.35639,-0.62495 -2.95251,-0.65304 -5.79496,-1.60308 -7.77218,-2.59772 -3.29462,-1.65738 -7.824676,-5.04818 -9.638332,-7.21439 l -0.892119,-1.06553 -1.75427,-0.12443 c -6.339257,-0.44961 -14.254003,-3.86553 -19.42589,-8.384 -7.198021,-6.28863 -11.030039,-13.72073 -9.677868,-18.77001 0.401738,-1.50017 1.451258,-3.49864 3.032607,-5.77456 1.487863,-2.14138 2.479039,-4.09784 2.789646,-5.50644 0.245674,-1.11413 0.302314,-1.04315 -3.039956,-3.80919 -7.074984,-5.85519 -9.636277,-9.92678 -9.636277,-15.31846 0,-4.40484 1.851917,-9.11936 6.08938,-15.50209 l 1.374928,-2.071 0.159586,-2.16471 c 0.224703,-3.04806 1.391177,-6.31076 3.007585,-8.41242 1.50601,-1.95812 3.850573,-3.87 5.908094,-4.81776 1.295467,-0.59673 3.091744,-2.26728 4.179038,-3.88652 0.735879,-1.09591 0.886548,-1.4962 0.901349,-2.39465 0.119675,-7.26595 2.251134,-13.27779 5.666637,-15.98292 0.828444,-0.65614 3.732778,-2.14465 4.184577,-2.14465 0.134564,0 1.173486,-0.28591 2.308727,-0.63536 2.527971,-0.77816 3.06292,-0.78467 5.727792,-0.0697 1.451867,0.3895 2.669498,0.57084 3.910756,0.58242 1.73301,0.0162 1.8829,-0.0221 3.89016,-0.99217 2.54587,-1.2304 4.68501,-2.61006 8.2422,-5.31586 1.49058,-1.13382 3.58727,-2.6264 4.65929,-3.31684 3.12824,-2.014741 2.88084,-1.760142 2.6286,-2.705147 -0.28434,-1.065299 -0.11123,-1.474487 0.78162,-1.847542 0.6737,-0.281491 0.77176,-0.45092 1.36662,-2.361287 0.35247,-1.131919 0.59228,-2.13661 0.53293,-2.232647 -0.0593,-0.09604 -0.57417,-0.410885 -1.14405,-0.699659 -1.9572,-0.991786 -3.16196,-2.37209 -3.17635,-3.63916 -0.004,-0.326111 -0.14666,-0.777926 -0.31768,-1.004034 -0.49784,-0.658202 -0.37076,-1.363259 0.37736,-2.093673 0.37857,-0.36961 0.79137,-0.957926 0.91735,-1.307373 0.4191,-1.162643 2.34426,-2.011969 4.56049,-2.011969 1.15712,0 1.59,-0.278041 1.89343,-1.216144 0.66759,-2.06399 2.22231,-4.055841 3.96116,-5.074867 0.50408,-0.295419 0.87044,-0.644783 0.81412,-0.776368 -0.94996,-2.219326 -0.93125,-4.277737 0.0581,-6.391952 0.66683,-1.424994 1.00779,-1.744628 4.61567,-4.327061 2.07199,-1.483081 2.43657,-1.837852 2.9345,-2.855593 0.49203,-1.00566 0.53704,-1.252579 0.33435,-1.834017 -0.30362,-0.870946 -0.30037,-2.897173 0.006,-3.776152 0.18274,-0.524215 0.17668,-0.954308 -0.0253,-1.79636 -0.32328,-1.347605 0.003,-2.686464 1.26652,-5.199821 0.94839,-1.88626 1.05323,-1.988608 2.68234,-2.618536 l 1.23674,-0.478209 0.11591,-1.473912 c 0.15411,-1.959685 0.71142,-3.042099 2.75062,-5.342241 1.26007,-1.421312 1.94044,-2.00614 2.72805,-2.344964 1.15444,-0.496625 2.9945,-0.599335 3.97496,-0.221877 0.32791,0.126239 1.15571,0.320781 1.83955,0.432316 1.48416,0.242066 2.59856,0.777108 3.50355,1.682101 1.00947,1.009462 1.36214,1.842956 1.51302,3.575792 0.129,1.481527 0.18143,1.610733 0.85679,2.110984 2.04085,1.511706 3.62401,3.804653 4.35615,6.309157 l 0.38441,1.315027 1.18593,-0.123954 c 1.0984,-0.114806 1.23751,-0.07787 1.88485,0.500541 0.57867,0.517037 0.72882,0.840504 0.87262,1.879827 0.227,1.640684 -0.11262,3.759998 -0.78737,4.913373 -0.81898,1.399898 -2.12806,2.096819 -5.85075,3.114771 -0.94965,0.259679 -1.28324,0.464256 -1.52761,0.936821 -0.17196,0.332526 -0.45385,0.658774 -0.62642,0.724997 -0.17258,0.06622 -0.7909,1.119498 -1.37406,2.340612 -0.9343,1.956403 -1.19993,2.325635 -2.2355,3.107496 -0.64636,0.488011 -1.1752,0.953313 -1.1752,1.034008 0,0.353192 1.28852,1.301898 2.75322,2.027127 2.0962,1.03791 2.88093,1.651292 3.39053,2.650179 0.53625,1.051142 0.53391,2.220776 -0.008,4.040722 -0.41626,1.397716 -0.41789,1.468053 -0.0522,2.246587 l 0.37753,0.803697 2.0112,0.113966 c 2.79577,0.158423 3.71781,0.68292 3.95494,2.24973 0.0677,0.447204 0.31105,1.12597 0.54081,1.508371 0.5001,0.832362 0.43247,1.657723 -0.29801,3.636951 -0.45596,1.235428 -0.60181,1.417244 -1.51296,1.88614 -0.58382,0.300443 -1.56205,0.571895 -2.32347,0.644747 l -1.3151,0.125831 0.0621,1.37661 c 0.0766,1.698746 0.45561,4.456062 0.66436,4.833693 0.0852,0.154161 0.38549,0.395706 0.66727,0.53677 0.4723,0.23643 0.51367,0.382992 0.52921,1.875083 0.0183,1.761362 -0.0378,1.639652 1.80008,3.901542 0.64987,0.7998 2.14,2.88898 3.31139,4.64262 2.19381,3.28423 4.36524,6.12 7.36987,9.62463 2.42912,2.83334 4.30775,5.31798 5.60458,7.41252 1.41357,2.2831 1.68513,2.57691 3.55048,3.84167 1.12489,0.7627 1.82215,1.4476 2.61642,2.57005 1.38126,1.95196 1.60658,2.42377 1.30266,2.72769 -0.40428,0.40429 -1.29475,-0.006 -2.22526,-1.02524 -1.59129,-1.74307 -1.82797,-1.97237 -2.03592,-1.97237 -0.11241,0 -0.0597,0.36821 0.11704,0.81825 0.29712,0.75639 0.28783,0.94069 -0.12292,2.4379 -0.2444,0.89081 -0.44435,2.08949 -0.44435,2.66373 0,1.13265 -0.19469,1.38813 -0.91213,1.19696 -0.91763,-0.24452 -1.61856,-1.6146 -2.57373,-5.03072 -0.28952,-1.03544 -1.77221,-3.46401 -1.98496,-3.25127 -0.0412,0.0411 0.0769,0.59689 0.26246,1.23499 0.48018,1.65176 0.45121,3.24286 -0.064,3.51862 -0.50452,0.27001 -0.68896,0.0618 -1.28528,-1.45111 -0.24807,-0.62934 -0.81574,-1.77276 -1.26149,-2.5409 -0.9985,-1.72066 -1.02105,-1.80036 -1.17446,-4.14986 -0.0684,-1.04833 -0.18105,-2.19198 -0.25021,-2.54142 -0.38618,-1.9512 -2.02763,-3.68674 -7.52278,-7.95407 -9.76356,-7.58204 -9.71571,-7.5312 -10.83801,-11.51622 -0.3378,-1.19947 -0.71648,-2.05722 -1.07207,-2.42838 -0.60641,-0.63296 -0.67026,-1.00757 -0.30745,-1.803854 0.18452,-0.404987 0.17762,-0.836795 -0.0289,-1.810149 -0.27987,-1.318778 -0.51056,-1.586598 -0.74108,-0.860316 -0.16959,0.534334 -1.39262,2.322284 -2.6115,3.817759 -0.52216,0.64065 -1.1853,1.67656 -1.47365,2.30202 -0.68022,1.47548 -0.57694,3.08565 0.30273,4.71996 l 0.60385,1.12186 1.58146,0.26327 c 6.28962,1.04705 14.54528,9.50555 17.81926,18.25705 0.42017,1.12313 0.79212,1.63181 2.16801,2.96501 3.94538,3.82293 7.88162,9.64178 9.14238,13.51496 0.21651,0.66517 0.51236,1.15309 0.74367,1.2265 0.21126,0.0671 0.63023,0.31552 0.93104,0.55214 0.46614,0.36665 0.54693,0.59738 0.54693,1.56186 0,1.0618 0.0508,1.17192 0.82332,1.78375 1.87802,1.48741 5.55816,6.42586 6.67611,8.95876 1.87289,4.24339 3.25381,10.75206 3.42792,16.15675 0.0696,2.15982 0.14621,2.62091 0.51044,3.0709 3.9279,4.85265 8.92373,14.30307 11.53167,21.81399 2.02766,5.83971 3.7156,13.7696 3.7156,17.45579 0,1.767 -0.0565,2.0541 -0.54949,2.79318 -1.7744,2.66008 -5.99267,5.59531 -10.78107,7.50188 -4.93807,1.96616 -9.24123,2.67583 -12.76132,2.10458 -1.09085,-0.17702 -1.43792,-0.15654 -1.96492,0.11599 -0.41554,0.21488 -0.88812,0.28445 -1.34722,0.19832 -0.58597,-0.10993 -0.82995,-0.0259 -1.42365,0.48992 -1.03745,0.90146 -1.55206,1.12117 -2.28336,0.97491 -0.52842,-0.10568 -0.78786,-0.007 -1.40132,0.5313 -0.61243,0.53772 -0.93905,0.66186 -1.75144,0.6657 -0.66372,0.003 -1.17618,0.14359 -1.52808,0.41886 -0.2912,0.22778 -0.84459,0.41627 -1.22976,0.41886 -0.38516,0.002 -1.48115,0.32514 -2.43554,0.71678 -3.21506,1.31931 -7.6303,2.62065 -11.15973,3.28918 -3.32035,0.62894 -9.30883,0.83463 -12.49538,0.42918 z M 114.1829,117.68556 c 2.02561,-0.51807 2.84666,-0.99414 5.29383,-3.06951 3.92606,-3.32956 8.79607,-6.20312 11.30652,-6.67143 0.62743,-0.11704 1.88555,-0.21281 2.79581,-0.21281 h 1.65502 l 0.73946,-1.32366 c 1.54971,-2.774 1.41647,-4.09414 -0.91282,-9.0444 -1.49298,-3.17291 -1.95536,-4.332052 -2.34807,-5.88652 -0.16025,-0.634344 -0.33809,-0.900092 -0.60233,-0.900092 -0.71723,0 -1.08174,0.54266 -1.84434,2.745723 -0.42194,1.21894 -0.94545,2.565714 -1.16335,2.992832 -0.3892,0.762896 -0.38886,0.783191 0.0189,1.152199 0.69523,0.629172 0.52392,1.386168 -0.55145,2.436689 -0.53159,0.519309 -1.30454,1.585049 -1.71768,2.368329 -0.41313,0.78328 -1.1795,1.81897 -1.70302,2.30154 -1.65534,1.52584 -6.40984,3.52146 -13.29693,5.58116 -5.04351,1.50834 -8.00321,2.45994 -8.20017,2.63653 -0.1737,0.15573 2.95204,3.27025 4.06592,4.05132 1.007,0.70613 2.66596,1.25065 3.83565,1.25897 0.53466,0.004 1.71774,-0.1838 2.62907,-0.41687 z"
       id="path76" />
  </g>
</svg>
